<svg xmlns="http://www.w3.org/2000/svg" width="22" height="22" viewBox="0 0 24 24" fill="none">
  <defs>
    <mask id="clipboard-check-filled-mask" maskUnits="userSpaceOnUse" x="0" y="0" width="24" height="24">
      <rect width="24" height="24" fill="white" />
      <rect x="10" y="3" width="4" height="2" rx="0.5" fill="black" />
      <path d="m9 14 2 2 4-4" stroke="black" stroke-width="2.5" stroke-linecap="round" stroke-linejoin="round" fill="none" />
    </mask>
  </defs>
  <g mask="url(#clipboard-check-filled-mask)">
    <path fill="currentColor" d="M9 2h6a1 1 0 0 1 1 1v1h2a2 2 0 0 1 2 2v14a2 2 0 0 1-2 2H6a2 2 0 0 1-2-2V6a2 2 0 0 1 2-2h2V3a1 1 0 0 1 1-1Z" />
  </g>
</svg>
